<svg width="1200" height="840" viewBox="0 0 1200 840" fill="none" xmlns="http://www.w3.org/2000/svg">
  <rect width="1200" height="840" rx="48" fill="#EEF7F6"/>
  <circle cx="928" cy="182" r="92" fill="#D6EEEB"/>
  <path d="M372 332C372 233.693 451.693 154 550 154C648.307 154 728 233.693 728 332V350H372V332Z" fill="#254A61"/>
  <circle cx="550" cy="336" r="118" fill="#F2C2A8"/>
  <path d="M304 658C304 515.511 419.511 400 562 400H590C732.489 400 848 515.511 848 658V680C848 713.137 821.137 740 788 740H364C330.863 740 304 713.137 304 680V658Z" fill="#6AB5C0"/>
  <rect x="790" y="142" width="210" height="274" rx="32" fill="#F9FBFB"/>
  <circle cx="894" cy="224" r="56" fill="#F2C2A8"/>
  <path d="M822 380C822 330.295 862.295 290 912 290H876C925.705 290 966 330.295 966 380V396C966 418.091 948.091 436 926 436H862C839.909 436 822 418.091 822 396V380Z" fill="#61B8BE"/>
  <rect x="844" y="500" width="174" height="132" rx="24" fill="#FFFFFF"/>
  <rect x="886" y="536" width="90" height="18" rx="9" fill="#61B8BE"/>
  <path d="M884 576C884 564.954 892.954 556 904 556H990C1001.05 556 1010 564.954 1010 576V578C1010 589.046 1001.05 598 990 598H904C892.954 598 884 589.046 884 578V576Z" fill="#47697D"/>
  <path d="M210 592C210 556.654 238.654 528 274 528H360C395.346 528 424 556.654 424 592V598C424 633.346 395.346 662 360 662H274C238.654 662 210 633.346 210 598V592Z" fill="#8AC9C0"/>
  <path d="M460 588C460 552.654 488.654 524 524 524H640C675.346 524 704 552.654 704 588V594C704 629.346 675.346 658 640 658H524C488.654 658 460 629.346 460 594V588Z" fill="#D7E8E4"/>
</svg>
