<svg width="1200" height="840" viewBox="0 0 1200 840" fill="none" xmlns="http://www.w3.org/2000/svg">
  <rect width="1200" height="840" rx="54" fill="#F1F8F7"/>
  <rect y="548" width="1200" height="292" fill="#DDEFED"/>
  <circle cx="988" cy="134" r="92" fill="#D7EFEB"/>
  <rect x="112" y="122" width="320" height="320" rx="40" fill="#F9FAFB"/>
  <circle cx="272" cy="202" r="68" fill="#F2C2A8"/>
  <path d="M180 352C180 288.487 231.487 237 295 237H249C312.513 237 364 288.487 364 352V379C364 403.853 343.853 424 319 424H225C200.147 424 180 403.853 180 379V352Z" fill="#61B8BE"/>
  <rect x="710" y="168" width="318" height="226" rx="34" fill="#8BC8BE"/>
  <circle cx="772" cy="194" r="44" fill="#F2C2A8"/>
  <path d="M708 408C708 349.458 755.458 302 814 302H830C888.542 302 936 349.458 936 408V424C936 446.091 918.091 464 896 464H748C725.909 464 708 446.091 708 424V408Z" fill="#3B8CA4"/>
  <rect x="782" y="438" width="242" height="138" rx="22" fill="#F9FAFB"/>
  <rect x="824" y="486" width="128" height="22" rx="11" fill="#61B8BE"/>
  <rect x="824" y="530" width="162" height="30" rx="15" fill="#47697D"/>
  <path d="M468 510C468 433.784 529.784 372 606 372C682.216 372 744 433.784 744 510C744 578.614 693.339 635.398 627.5 646.313V700H578.5V646.313C512.661 635.398 462 578.614 462 510H468Z" fill="#7EC7C2"/>
  <path d="M610 442C585.699 442 566 461.699 566 486C566 510.301 585.699 530 610 530C634.301 530 654 510.301 654 486C654 461.699 634.301 442 610 442Z" fill="#F6D64C"/>
  <path d="M538 568C538 528.235 570.235 496 610 496C649.765 496 682 528.235 682 568V584H538V568Z" fill="#F3C2A8"/>
  <path d="M468 650C468 627.909 485.909 610 508 610H712C734.091 610 752 627.909 752 650V654C752 676.091 734.091 694 712 694H508C485.909 694 468 676.091 468 654V650Z" fill="#D2E7E3"/>
</svg>
