<svg width="1200" height="840" viewBox="0 0 1200 840" fill="none" xmlns="http://www.w3.org/2000/svg">
  <rect width="1200" height="840" rx="54" fill="#EEF7F5"/>
  <rect y="520" width="1200" height="320" fill="#DCEFED"/>
  <circle cx="214" cy="122" r="88" fill="#D9EEEA"/>
  <rect x="760" y="88" width="250" height="290" rx="34" fill="#FBF8F7"/>
  <circle cx="885" cy="170" r="62" fill="#F2C2A8"/>
  <path d="M812 331C812 278.533 854.533 236 907 236H863C915.467 236 958 278.533 958 331V347C958 369.091 940.091 387 918 387H852C829.909 387 812 369.091 812 347V331Z" fill="#61B8BE"/>
  <circle cx="382" cy="412" r="118" fill="#8ECF72"/>
  <circle cx="540" cy="434" r="82" fill="#FFD74D"/>
  <circle cx="485" cy="528" r="122" fill="#F26F57"/>
  <path d="M349 390C349 344.16 386.16 307 432 307H518C563.84 307 601 344.16 601 390V455C601 500.84 563.84 538 518 538H432C386.16 538 349 500.84 349 455V390Z" fill="#86CBC4"/>
  <rect x="344" y="650" width="410" height="54" rx="27" fill="#CFE5E1"/>
  <rect x="84" y="112" width="312" height="332" rx="38" fill="#F8FBFB"/>
  <rect x="144" y="188" width="192" height="184" rx="28" fill="#D5EBEE"/>
  <circle cx="240" cy="280" r="62" fill="#7ABEC4"/>
</svg>
