<svg xmlns="http://www.w3.org/2000/svg" viewBox="0 0 1200 840" role="img" aria-labelledby="title desc">
  <title id="title">Nutrición</title>
  <desc id="desc">Placeholder visual con alimentos frescos y una consulta nutricional amable.</desc>
  <defs>
    <linearGradient id="bg" x1="0%" y1="0%" x2="100%" y2="100%">
      <stop offset="0%" stop-color="#f4fbf9" />
      <stop offset="100%" stop-color="#ddefea" />
    </linearGradient>
  </defs>
  <rect width="1200" height="840" fill="url(#bg)" />
  <rect y="565" width="1200" height="275" fill="#deefec" />
  <circle cx="210" cy="165" r="98" fill="#d8f0ea" />
  <rect x="610" y="180" width="360" height="300" rx="32" fill="#f9fcfd" />
  <circle cx="360" cy="515" r="115" fill="#84c9c1" />
  <circle cx="360" cy="515" r="72" fill="#f06f59" />
  <circle cx="280" cy="448" r="56" fill="#8dc95f" />
  <circle cx="450" cy="438" r="50" fill="#f2d34b" />
  <rect x="225" y="600" width="270" height="42" rx="21" fill="#cfe7dd" />
  <circle cx="745" cy="270" r="56" fill="#f2cab5" />
  <path d="M676 396c16-74 124-74 140 0l8 24c9 27-11 52-40 52h-92c-29 0-49-25-40-52l8-24z" fill="#61b8be" />
  <rect x="700" y="520" width="200" height="16" rx="8" fill="#61b8be" />
  <rect x="700" y="554" width="150" height="18" rx="9" fill="#26495a" opacity="0.82" />
</svg>
